<svg width="30" height="22" viewBox="0 0 30 22" fill="none" xmlns="http://www.w3.org/2000/svg">
<path d="M13.2619 21.9938H1.74751C1.28896 21.9905 0.850304 21.8054 0.527215 21.479C0.204126 21.1526 0.0228155 20.7112 0.0228271 20.2512V1.74257C0.0228155 1.28256 0.204126 0.841205 0.527215 0.514765C0.850304 0.188324 1.28896 0.00328579 1.74751 0H27.1214C27.58 0.00328579 28.0186 0.188324 28.3417 0.514765C28.6648 0.841205 28.8461 1.28256 28.8461 1.74257V12.7332C28.8258 12.8722 28.7563 12.9991 28.6504 13.0909C28.5444 13.1826 28.4091 13.2331 28.2692 13.2331C28.1292 13.2331 27.9939 13.1826 27.888 13.0909C27.782 12.9991 27.7126 12.8722 27.6922 12.7332V1.74257C27.6922 1.58955 27.6325 1.44261 27.5258 1.33325C27.4191 1.22389 27.2739 1.16082 27.1214 1.15756H1.74751C1.6715 1.15754 1.59625 1.17276 1.52618 1.20231C1.45612 1.23186 1.39265 1.27515 1.33949 1.32964C1.28632 1.38413 1.24454 1.44873 1.2166 1.51964C1.18865 1.59055 1.17511 1.66634 1.17676 1.74257V20.2512C1.17511 20.3274 1.18865 20.4032 1.2166 20.4741C1.24454 20.545 1.28632 20.6096 1.33949 20.6641C1.39265 20.7186 1.45612 20.7619 1.52618 20.7915C1.59625 20.821 1.6715 20.8362 1.74751 20.8362H13.2619C13.3448 20.824 13.4293 20.8298 13.5097 20.8533C13.5902 20.8768 13.6646 20.9173 13.728 20.9723C13.7913 21.0272 13.8422 21.0951 13.8771 21.1715C13.9119 21.2479 13.9299 21.331 13.9299 21.415C13.9299 21.499 13.9119 21.582 13.8771 21.6584C13.8422 21.7348 13.7913 21.8028 13.728 21.8577C13.6646 21.9126 13.5902 21.9532 13.5097 21.9767C13.4293 22.0002 13.3448 22.006 13.2619 21.9938Z" fill="black"/>
<path d="M24.8136 4.68015H0.668005C0.585143 4.69237 0.500629 4.68655 0.420213 4.66307C0.339796 4.63959 0.265359 4.59901 0.201975 4.5441C0.138591 4.48918 0.0877512 4.42121 0.0528982 4.34481C0.0180452 4.26841 0 4.18538 0 4.10136C0 4.01735 0.0180452 3.93432 0.0528982 3.85792C0.0877512 3.78152 0.138591 3.71355 0.201975 3.65863C0.265359 3.60372 0.339796 3.56314 0.420213 3.53966C0.500629 3.51618 0.585143 3.51036 0.668005 3.52258H24.8136C24.952 3.54301 25.0786 3.61271 25.17 3.71897C25.2615 3.82523 25.3119 3.96096 25.3119 4.10136C25.3119 4.24177 25.2615 4.3775 25.17 4.48376C25.0786 4.59002 24.952 4.65972 24.8136 4.68015Z" fill="black"/>
<path d="M24.8136 8.1279H0.680437C0.597575 8.14013 0.513062 8.1343 0.432645 8.11082C0.352229 8.08735 0.27781 8.04677 0.214426 7.99185C0.151042 7.93693 0.100183 7.86896 0.0653304 7.79257C0.0304774 7.71617 0.0124512 7.63314 0.0124512 7.54912C0.0124512 7.4651 0.0304774 7.38207 0.0653304 7.30567C0.100183 7.22928 0.151042 7.16131 0.214426 7.10639C0.27781 7.05147 0.352229 7.01089 0.432645 6.98741C0.513062 6.96394 0.597575 6.95811 0.680437 6.97034H24.8136C24.9521 6.99076 25.0786 7.06047 25.1701 7.16673C25.2616 7.27299 25.3119 7.40871 25.3119 7.54912C25.3119 7.68953 25.2616 7.82525 25.1701 7.93151C25.0786 8.03777 24.9521 8.10748 24.8136 8.1279Z" fill="black"/>
<path d="M7.45502 16.766H5.1844C4.72585 16.7627 4.28719 16.5777 3.9641 16.2512C3.64102 15.9248 3.45971 15.4835 3.45972 15.0234V13.8659C3.46299 13.4092 3.64615 12.9723 3.96924 12.6505C4.29232 12.3288 4.72913 12.1482 5.1844 12.1482H7.45502C7.91244 12.1482 8.35112 12.3305 8.67456 12.6549C8.998 12.9794 9.1797 13.4195 9.1797 13.8783V15.0359C9.17646 15.4937 8.9937 15.9319 8.67096 16.2557C8.34822 16.5794 7.91143 16.7628 7.45502 16.766ZM5.1844 13.2933C5.10944 13.2933 5.03524 13.3081 4.96599 13.3369C4.89674 13.3657 4.83381 13.4078 4.78081 13.461C4.72781 13.5142 4.68577 13.5773 4.65708 13.6468C4.6284 13.7162 4.61365 13.7907 4.61365 13.8659V15.0234C4.61362 15.1765 4.67334 15.3234 4.78003 15.4328C4.88673 15.5421 5.03189 15.6052 5.1844 15.6084H7.45502C7.60753 15.6052 7.75269 15.5421 7.85939 15.4328C7.96609 15.3234 8.02582 15.1765 8.02579 15.0234V13.8659C8.02579 13.714 7.96565 13.5684 7.85861 13.461C7.75158 13.3536 7.6064 13.2933 7.45502 13.2933H5.1844Z" fill="black"/>
<path d="M29.4292 21.9937H20.9919C18.8967 21.9904 16.8882 21.154 15.4067 19.6678C13.9252 18.1816 13.0914 16.1668 13.0881 14.065C13.0944 13.9031 13.1622 13.7498 13.2775 13.6364C13.3929 13.523 13.5471 13.4581 13.7085 13.4551H22.1334C24.2198 13.4551 26.2206 14.2865 27.6959 15.7664C29.1712 17.2463 29.9999 19.2535 29.9999 21.3465V21.4211C29.9968 21.572 29.9356 21.7158 29.8293 21.8225C29.7229 21.9292 29.5796 21.9905 29.4292 21.9937ZM14.2669 14.6375C14.4068 16.3315 15.1755 17.911 16.4209 19.0635C17.6662 20.216 19.2975 20.8575 20.9919 20.861H28.8336C28.7025 19.1682 27.9398 17.5872 26.6978 16.4337C25.4559 15.2801 23.826 14.6387 22.1334 14.6375H14.2669Z" fill="black"/>
</svg>
