<svg width="30" height="27" viewBox="0 0 30 27" fill="none" xmlns="http://www.w3.org/2000/svg">
<path d="M16.9701 22.7981C16.7558 22.7998 16.5425 22.7692 16.3377 22.7074L10.1452 21.0743C9.98773 21.0289 9.85438 20.9252 9.77326 20.7849C9.69213 20.6446 9.66958 20.4789 9.71037 20.3225C9.75648 20.1705 9.85994 20.0415 9.99955 19.962C10.1392 19.8825 10.3044 19.8585 10.4614 19.8948L16.6539 21.5409C16.8096 21.582 16.972 21.5925 17.1319 21.5717C17.2917 21.5509 17.4458 21.4993 17.5854 21.4198C17.7249 21.3404 17.8471 21.2346 17.945 21.1086C18.0429 20.9826 18.1146 20.8388 18.1559 20.6855C18.1973 20.5333 18.207 20.3745 18.1844 20.2186C18.1617 20.0626 18.1072 19.9128 18.0241 19.7782C17.9458 19.6397 17.8403 19.5179 17.7136 19.42C17.5869 19.3221 17.4416 19.25 17.2863 19.2079L7.97121 16.7454H7.81311H5.04625C4.95826 16.7581 4.86852 16.752 4.78313 16.7276C4.69773 16.7031 4.61869 16.6609 4.55139 16.6037C4.48408 16.5465 4.43009 16.4757 4.39309 16.3962C4.35608 16.3166 4.33691 16.2302 4.33691 16.1427C4.33691 16.0552 4.35608 15.9687 4.39309 15.8892C4.43009 15.8096 4.48408 15.7388 4.55139 15.6817C4.61869 15.6245 4.69773 15.5822 4.78313 15.5578C4.86852 15.5333 4.95826 15.5273 5.04625 15.54H7.83945C7.99692 15.5202 8.1563 15.5202 8.31377 15.54L17.6289 18.0026C17.9402 18.0849 18.232 18.2269 18.4875 18.4204C18.743 18.6139 18.9571 18.8551 19.1177 19.1302C19.4421 19.688 19.5319 20.3485 19.368 20.9706C19.2241 21.4807 18.9144 21.9305 18.4861 22.2512C18.0578 22.5718 17.5346 22.7457 16.9964 22.7462L16.9701 22.7981Z" fill="white"/>
<path d="M15.9556 26.9586C15.7893 26.9784 15.6212 26.9784 15.4549 26.9586L7.36513 24.6775H7.19386H5.04625C4.95826 24.6902 4.86852 24.6842 4.78313 24.6597C4.69773 24.6353 4.61869 24.593 4.55139 24.5358C4.48408 24.4787 4.43009 24.4079 4.39309 24.3283C4.35608 24.2488 4.33691 24.1623 4.33691 24.0748C4.33691 23.9874 4.35608 23.9009 4.39309 23.8213C4.43009 23.7418 4.48408 23.671 4.55139 23.6138C4.61869 23.5566 4.69773 23.5144 4.78313 23.4899C4.86852 23.4655 4.95826 23.4594 5.04625 23.4722H7.20703C7.37707 23.4716 7.5461 23.4979 7.70771 23.5499L15.7975 25.8181C15.9037 25.8568 16.0206 25.8568 16.1269 25.8181L27.9848 22.6945C28.2093 22.6384 28.4091 22.5119 28.5541 22.3342C28.6991 22.1565 28.7814 21.9372 28.7885 21.7095C28.7909 21.5608 28.7616 21.4134 28.7024 21.2766C28.6433 21.1398 28.5556 21.0168 28.4451 20.9154C28.3346 20.814 28.2037 20.7365 28.0609 20.688C27.918 20.6395 27.7664 20.621 27.6159 20.6337L19.1177 21.4114C18.9652 21.4094 18.8188 21.3521 18.7066 21.2506C18.5944 21.149 18.5242 21.0103 18.5095 20.8609C18.4949 20.7116 18.5367 20.5622 18.627 20.4414C18.7174 20.3205 18.8498 20.2367 18.9991 20.206L27.5105 19.4284C28.0818 19.3834 28.6497 19.5494 29.1034 19.894C29.5571 20.2386 29.864 20.737 29.9644 21.2922C30.0648 21.8473 29.9513 22.4193 29.6462 22.8966C29.3411 23.3739 28.8663 23.7224 28.3142 23.8739L16.4562 26.9975C16.2883 27.006 16.12 26.9929 15.9556 26.9586Z" fill="white"/>
<path d="M3.59691 25.8959H1.9368C1.4242 25.8925 0.933575 25.6906 0.571101 25.3341C0.208626 24.9775 0.003452 24.4949 0 23.9906V16.2141C0 15.7088 0.204061 15.2242 0.567281 14.8669C0.930501 14.5096 1.42313 14.3088 1.9368 14.3088H3.59691C4.11058 14.3088 4.60323 14.5096 4.96645 14.8669C5.32967 15.2242 5.53371 15.7088 5.53371 16.2141V19.4932C5.51208 19.6378 5.43831 19.77 5.32583 19.8656C5.21335 19.9612 5.06968 20.0137 4.92105 20.0137C4.77242 20.0137 4.62875 19.9612 4.51627 19.8656C4.40379 19.77 4.33002 19.6378 4.30839 19.4932V16.253C4.30839 16.0673 4.23344 15.8893 4.10001 15.7581C3.96659 15.6268 3.7856 15.5531 3.59691 15.5531H1.9368C1.7504 15.5565 1.57281 15.6317 1.44222 15.7626C1.31163 15.8935 1.23847 16.0696 1.2385 16.253V24.0295C1.23675 24.1208 1.25351 24.2115 1.28782 24.2964C1.32212 24.3812 1.3733 24.4585 1.43832 24.5236C1.50333 24.5888 1.58091 24.6406 1.6665 24.6759C1.75209 24.7112 1.84398 24.7294 1.9368 24.7294H3.59691C3.7856 24.7294 3.96659 24.6556 4.10001 24.5244C4.23344 24.3931 4.30839 24.2151 4.30839 24.0295V23.187C4.29546 23.1005 4.30162 23.0122 4.32647 22.9282C4.35132 22.8442 4.39427 22.7664 4.4524 22.7002C4.51053 22.634 4.58249 22.5809 4.66335 22.5445C4.74422 22.5081 4.83212 22.4893 4.92105 22.4893C5.00999 22.4893 5.09788 22.5081 5.17875 22.5445C5.25961 22.5809 5.33157 22.634 5.3897 22.7002C5.44783 22.7664 5.49078 22.8442 5.51563 22.9282C5.54048 23.0122 5.54664 23.1005 5.53371 23.187V24.0295C5.53371 24.5348 5.32967 25.0194 4.96645 25.3767C4.60323 25.734 4.11058 25.9347 3.59691 25.9347V25.8959Z" fill="white"/>
<path d="M22.5301 8.47634H19.3944C19.2473 8.45507 19.1129 8.38248 19.0158 8.27184C18.9186 8.16119 18.8652 8.01987 18.8652 7.87366C18.8652 7.72746 18.9186 7.58613 19.0158 7.47548C19.1129 7.36483 19.2473 7.29225 19.3944 7.27098H22.5301C22.8315 7.24011 23.1106 7.10049 23.3134 6.87908C23.5163 6.65767 23.6286 6.37017 23.6286 6.0721C23.6286 5.77403 23.5163 5.48653 23.3134 5.26511C23.1106 5.0437 22.8315 4.90408 22.5301 4.87322H19.5393C19.4513 4.88595 19.3616 4.87988 19.2762 4.85543C19.1908 4.83098 19.1117 4.78873 19.0444 4.73155C18.9771 4.67436 18.9231 4.60358 18.8861 4.52403C18.8491 4.44448 18.83 4.35803 18.83 4.27054C18.83 4.18306 18.8491 4.0966 18.8861 4.01704C18.9231 3.93749 18.9771 3.86671 19.0444 3.80953C19.1117 3.75234 19.1908 3.71009 19.2762 3.68565C19.3616 3.6612 19.4513 3.65513 19.5393 3.66786H22.5433C23.1933 3.66786 23.8166 3.92185 24.2762 4.37394C24.7358 4.82604 24.994 5.43922 24.994 6.07858C24.994 6.71794 24.7358 7.33112 24.2762 7.78321C23.8166 8.23531 23.1933 8.4893 22.5433 8.4893L22.5301 8.47634Z" fill="white"/>
<path d="M19.5393 12.1055C19.3751 12.1055 19.2176 12.0413 19.1014 11.9271C18.9853 11.8128 18.92 11.6579 18.92 11.4963V4.27713C18.9071 4.19057 18.9133 4.10229 18.9381 4.01829C18.963 3.93429 19.0059 3.85653 19.0641 3.79032C19.1222 3.72411 19.1941 3.67101 19.275 3.6346C19.3559 3.5982 19.4438 3.57935 19.5327 3.57935C19.6216 3.57935 19.7095 3.5982 19.7904 3.6346C19.8713 3.67101 19.9432 3.72411 20.0013 3.79032C20.0595 3.85653 20.1024 3.93429 20.1273 4.01829C20.1521 4.10229 20.1583 4.19057 20.1454 4.27713V11.5093C20.142 11.6664 20.0771 11.8161 19.9641 11.9272C19.8512 12.0383 19.699 12.1022 19.5393 12.1055Z" fill="white"/>
<path d="M22.5301 10.6539H18.1031C17.9389 10.6539 17.7814 10.5897 17.6653 10.4755C17.5491 10.3612 17.4839 10.2063 17.4839 10.0447C17.4839 9.88315 17.5491 9.72821 17.6653 9.61397C17.7814 9.49973 17.9389 9.43555 18.1031 9.43555H22.5301C22.6943 9.43555 22.8518 9.49973 22.968 9.61397C23.0841 9.72821 23.1494 9.88315 23.1494 10.0447C23.1494 10.2063 23.0841 10.3612 22.968 10.4755C22.8518 10.5897 22.6943 10.6539 22.5301 10.6539Z" fill="white"/>
<path d="M22.5301 8.47649H18.1031C18.0151 8.48922 17.9254 8.48316 17.84 8.45871C17.7546 8.43426 17.6756 8.392 17.6083 8.33482C17.541 8.27763 17.487 8.20686 17.45 8.12731C17.413 8.04776 17.3938 7.9613 17.3938 7.87381C17.3938 7.78633 17.413 7.69987 17.45 7.62032C17.487 7.54076 17.541 7.46998 17.6083 7.4128C17.6756 7.35561 17.7546 7.31336 17.84 7.28892C17.9254 7.26447 18.0151 7.2584 18.1031 7.27113H22.5301C22.6181 7.2584 22.7078 7.26447 22.7932 7.28892C22.8786 7.31336 22.9576 7.35561 23.025 7.4128C23.0923 7.46998 23.1463 7.54076 23.1833 7.62032C23.2203 7.69987 23.2394 7.78633 23.2394 7.87381C23.2394 7.9613 23.2203 8.04776 23.1833 8.12731C23.1463 8.20686 23.0923 8.27763 23.025 8.33482C22.9576 8.392 22.8786 8.43426 22.7932 8.45871C22.7078 8.48316 22.6181 8.48922 22.5301 8.47649Z" fill="white"/>
<path d="M21.2257 15.3198C19.6856 15.3198 18.1801 14.8705 16.8996 14.0288C15.6191 13.1872 14.621 11.9908 14.0317 10.5912C13.4423 9.19153 13.2881 7.65138 13.5886 6.16551C13.889 4.67964 14.6306 3.31478 15.7196 2.24353C16.8086 1.17228 18.1961 0.442744 19.7066 0.147186C21.217 -0.148372 22.7827 0.00331735 24.2055 0.583075C25.6284 1.16283 26.8445 2.14461 27.7001 3.40427C28.5557 4.66394 29.0124 6.1449 29.0124 7.65988C29.0089 9.69035 28.1874 11.6367 26.7279 13.0724C25.2683 14.5082 23.2898 15.3163 21.2257 15.3198ZM21.2257 1.20536C19.9227 1.20536 18.6491 1.58543 17.5657 2.29751C16.4824 3.00959 15.638 4.0217 15.1394 5.20585C14.6408 6.38999 14.5103 7.69299 14.7645 8.95007C15.0187 10.2072 15.6461 11.3619 16.5674 12.2682C17.4887 13.1745 18.6626 13.7917 19.9405 14.0417C21.2184 14.2918 22.543 14.1634 23.7467 13.6729C24.9505 13.1825 25.9793 12.3518 26.7032 11.2861C27.4271 10.2204 27.8134 8.96751 27.8134 7.6858C27.8134 5.96708 27.1194 4.31876 25.8839 3.10344C24.6485 1.88812 22.9729 1.20536 21.2257 1.20536Z" fill="white"/>
<path d="M7.97118 11.8851C7.8092 11.8851 7.65365 11.8227 7.53789 11.7113C7.42213 11.5998 7.35538 11.4482 7.35193 11.2889V5.36576C7.37355 5.22111 7.44733 5.08894 7.55981 4.99337C7.67229 4.89781 7.81596 4.84521 7.96458 4.84521C8.11321 4.84521 8.25688 4.89781 8.36936 4.99337C8.48184 5.08894 8.55562 5.22111 8.57724 5.36576V11.2889C8.57388 11.446 8.50896 11.5957 8.39602 11.7068C8.28308 11.8179 8.13086 11.8818 7.97118 11.8851Z" fill="white"/>
<path d="M7.95797 11.8851C7.87015 11.8872 7.78301 11.8696 7.70313 11.8337C7.62324 11.7977 7.55269 11.7444 7.49682 11.6777L5.04617 8.93004C4.94427 8.80849 4.8942 8.65283 4.90649 8.49575C4.91877 8.33866 4.99246 8.19237 5.11205 8.08759C5.16854 8.03036 5.23612 7.98487 5.3108 7.95381C5.38549 7.92274 5.46576 7.90674 5.54685 7.90674C5.62793 7.90674 5.70819 7.92274 5.78287 7.95381C5.85756 7.98487 5.92515 8.03036 5.98164 8.08759L8.43229 10.939C8.54573 11.0508 8.60944 11.2022 8.60944 11.3602C8.60944 11.5182 8.54573 11.6697 8.43229 11.7814C8.36515 11.8307 8.28817 11.8654 8.20642 11.8833C8.12466 11.9011 8.03999 11.9018 7.95797 11.8851Z" fill="white"/>
<path d="M7.95805 11.8852C7.813 11.8869 7.67237 11.8361 7.56278 11.7427C7.44933 11.6309 7.38562 11.4794 7.38562 11.3214C7.38562 11.1635 7.44933 11.012 7.56278 10.9002L9.96071 8.15249C10.0161 8.09564 10.0825 8.05039 10.1561 8.01949C10.2297 7.98858 10.3089 7.97266 10.3889 7.97266C10.4689 7.97266 10.5481 7.98858 10.6217 8.01949C10.6953 8.05039 10.7618 8.09564 10.8171 8.15249C10.8788 8.20254 10.9298 8.2641 10.9671 8.33361C11.0045 8.40313 11.0275 8.47923 11.0349 8.55753C11.0422 8.63584 11.0338 8.7148 11.0099 8.78987C10.9861 8.86494 10.9475 8.93464 10.8962 8.99494L8.49823 11.7427C8.42533 11.8056 8.3387 11.8511 8.24504 11.8759C8.15137 11.9006 8.05317 11.9038 7.95805 11.8852Z" fill="white"/>
</svg>
