<svg width="30" height="25" viewBox="0 0 30 25" fill="none" xmlns="http://www.w3.org/2000/svg">
<path d="M6.95654 11.9687H4.08698C3.62903 11.9687 3.1898 11.7899 2.86598 11.4715C2.54216 11.1531 2.36026 10.7213 2.36026 10.2711V9.12309C2.36025 8.67173 2.54175 8.23868 2.86522 7.91838C3.18869 7.59807 3.62789 7.41651 4.08698 7.41328H5.80127C5.95183 7.41016 6.09535 7.34995 6.20183 7.24526C6.30831 7.14057 6.36948 6.99948 6.37265 6.85146V5.72789C6.37269 5.57774 6.3129 5.43356 6.20608 5.32625C6.09926 5.21895 5.95396 5.15707 5.80127 5.15387H2.90685C2.82389 5.16587 2.73927 5.16014 2.65876 5.1371C2.57825 5.11407 2.50371 5.07425 2.44025 5.02037C2.37679 4.96648 2.32593 4.89981 2.29104 4.82484C2.25614 4.74988 2.23804 4.66841 2.23804 4.58597C2.23804 4.50354 2.25614 4.42207 2.29104 4.3471C2.32593 4.27214 2.37679 4.20543 2.44025 4.15154C2.50371 4.09766 2.57825 4.05785 2.65876 4.03481C2.73927 4.01177 2.82389 4.00608 2.90685 4.01808H5.80127C6.26036 4.0213 6.69949 4.20287 7.02296 4.52317C7.34643 4.84348 7.52793 5.27652 7.52792 5.72789V6.85146C7.52792 7.30169 7.34602 7.73348 7.0222 8.05185C6.69838 8.37021 6.25922 8.54908 5.80127 8.54908H4.08698C4.01031 8.54908 3.93438 8.56391 3.86354 8.59276C3.79271 8.62161 3.72836 8.66391 3.67414 8.71721C3.61993 8.77051 3.57687 8.83377 3.54752 8.90342C3.51818 8.97306 3.50309 9.04771 3.50309 9.12309V10.2711C3.50634 10.4212 3.56932 10.5641 3.67847 10.6691C3.78761 10.7742 3.93427 10.8329 4.08698 10.8329H6.95654C7.10923 10.8361 7.25453 10.898 7.36135 11.0053C7.46817 11.1126 7.52796 11.2568 7.52792 11.4069C7.52792 11.5559 7.46775 11.6988 7.36059 11.8041C7.25342 11.9095 7.1081 11.9687 6.95654 11.9687Z" fill="black"/>
<path d="M15.0062 7.98734C14.8536 7.98415 14.7083 7.92227 14.6014 7.81496C14.4946 7.70766 14.4348 7.56347 14.4348 7.41333V1.69763C14.4316 1.54961 14.3705 1.40855 14.264 1.30386C14.1575 1.19917 14.014 1.13896 13.8634 1.13584C13.7074 1.13588 13.5576 1.07581 13.4461 0.968495C13.3346 0.861184 13.2703 0.71518 13.2671 0.56183C13.2703 0.41381 13.3315 0.272714 13.438 0.168025C13.5445 0.0633353 13.688 0.00316119 13.8385 4.39439e-05C14.0669 -0.00156563 14.2935 0.0410557 14.5051 0.125498C14.7167 0.209941 14.9093 0.334533 15.072 0.492171C15.2346 0.649809 15.3641 0.837434 15.453 1.04427C15.5419 1.2511 15.5885 1.47309 15.5901 1.69763V7.41333C15.5901 7.56557 15.5286 7.71156 15.4191 7.81921C15.3096 7.92686 15.1611 7.98734 15.0062 7.98734Z" fill="black"/>
<path d="M25.9751 14.1916H23.0931C23.0102 14.2036 22.9256 14.1979 22.845 14.1749C22.7645 14.1518 22.69 14.112 22.6265 14.0581C22.5631 14.0042 22.5122 13.9376 22.4773 13.8626C22.4424 13.7876 22.4243 13.7062 22.4243 13.6237C22.4243 13.5413 22.4424 13.4598 22.4773 13.3849C22.5122 13.3099 22.5631 13.2432 22.6265 13.1893C22.69 13.1354 22.7645 13.0956 22.845 13.0726C22.9256 13.0496 23.0102 13.0438 23.0931 13.0558H25.9751C26.0511 13.0593 26.1269 13.0472 26.1979 13.0202C26.2688 12.9932 26.3333 12.9519 26.387 12.899C26.4408 12.8462 26.4828 12.7828 26.5103 12.7131C26.5377 12.6433 26.55 12.5687 26.5465 12.494V7.963C26.5465 7.81286 26.4867 7.66867 26.3799 7.56137C26.2731 7.45406 26.1278 7.39218 25.9751 7.38899H23.0807C22.9258 7.38899 22.7773 7.32854 22.6679 7.2209C22.5584 7.11325 22.4969 6.96722 22.4969 6.81498C22.4969 6.66274 22.5584 6.51674 22.6679 6.4091C22.7773 6.30145 22.9258 6.24097 23.0807 6.24097H25.9751C26.4342 6.24419 26.8733 6.42576 27.1968 6.74606C27.5203 7.06637 27.7019 7.49945 27.7018 7.95081V12.4818C27.7042 12.7085 27.6603 12.9334 27.5728 13.1431C27.4853 13.3529 27.356 13.5433 27.1925 13.7031C26.861 14.0234 26.415 14.2031 25.9502 14.2039L25.9751 14.1916Z" fill="black"/>
<path d="M27.0807 10.7962H23.0931C22.9545 10.7762 22.8278 10.7078 22.7362 10.6035C22.6446 10.4992 22.5942 10.3661 22.5942 10.2283C22.5942 10.0905 22.6446 9.95735 22.7362 9.85309C22.8278 9.74883 22.9545 9.68044 23.0931 9.6604H27.0807C27.2194 9.68044 27.346 9.74883 27.4376 9.85309C27.5292 9.95735 27.5796 10.0905 27.5796 10.2283C27.5796 10.3661 27.5292 10.4992 27.4376 10.6035C27.346 10.7078 27.2194 10.7762 27.0807 10.7962Z" fill="black"/>
<path d="M15.5901 7.9874H14.3478C14.2092 7.96735 14.0825 7.89893 13.9909 7.79467C13.8993 7.69041 13.8489 7.55727 13.8489 7.4195C13.8489 7.28173 13.8993 7.14855 13.9909 7.04429C14.0825 6.94003 14.2092 6.8716 14.3478 6.85156H15.5901C15.673 6.83957 15.7577 6.8453 15.8382 6.86833C15.9187 6.89137 15.9931 6.93118 16.0566 6.98507C16.1201 7.03895 16.171 7.10567 16.2059 7.18063C16.2408 7.25559 16.2588 7.33706 16.2588 7.4195C16.2588 7.50194 16.2408 7.58341 16.2059 7.65837C16.171 7.73333 16.1201 7.80001 16.0566 7.85389C15.9931 7.90778 15.9187 7.94759 15.8382 7.97062C15.7577 7.99366 15.673 7.99939 15.5901 7.9874Z" fill="black"/>
<path d="M2.88205 24.7678C2.7305 24.7678 2.58517 24.7086 2.478 24.6033C2.37084 24.4979 2.31067 24.355 2.31067 24.206V15.9378C2.31066 15.4865 2.49216 15.0534 2.81563 14.7331C3.1391 14.4128 3.57823 14.2313 4.03732 14.228H10.7951C10.9337 14.2481 11.0604 14.3165 11.152 14.4207C11.2436 14.525 11.294 14.6582 11.294 14.7959C11.294 14.9337 11.2436 15.0669 11.152 15.1711C11.0604 15.2754 10.9337 15.3438 10.7951 15.3638H4.03732C3.88247 15.3638 3.73397 15.4243 3.62448 15.532C3.51498 15.6396 3.4535 15.7856 3.4535 15.9378V24.206C3.45033 24.3541 3.38909 24.4952 3.28261 24.5998C3.17612 24.7045 3.03261 24.7647 2.88205 24.7678Z" fill="black"/>
<path d="M19.0435 21.6171C18.8908 21.6139 18.7455 21.552 18.6387 21.4447C18.5319 21.3374 18.472 21.1933 18.472 21.0431V11.9567C18.472 11.8077 18.4118 11.6647 18.3047 11.5594C18.1975 11.454 18.0522 11.3948 17.9006 11.3948H12.1242C12.0481 11.3932 11.9725 11.4065 11.9018 11.434C11.831 11.4615 11.7665 11.5027 11.7121 11.555C11.6578 11.6074 11.6146 11.6698 11.5851 11.7388C11.5556 11.8078 11.5404 11.8818 11.5404 11.9567V19.2844C11.5526 19.366 11.5468 19.4492 11.5233 19.5283C11.4999 19.6075 11.4594 19.6807 11.4046 19.7431C11.3498 19.8055 11.282 19.8556 11.2057 19.8899C11.1295 19.9242 11.0466 19.9419 10.9627 19.9419C10.8789 19.9419 10.796 19.9242 10.7198 19.8899C10.6436 19.8556 10.5757 19.8055 10.5209 19.7431C10.466 19.6807 10.4255 19.6075 10.4021 19.5283C10.3787 19.4492 10.3729 19.366 10.3851 19.2844V11.9567C10.3884 11.5053 10.5731 11.0735 10.8989 10.7555C11.2247 10.4375 11.6651 10.259 12.1242 10.259H17.9627C18.4207 10.259 18.8598 10.4379 19.1837 10.7563C19.5075 11.0746 19.6895 11.5064 19.6895 11.9567V21.1042C19.6817 21.1797 19.6588 21.253 19.6221 21.3198C19.5853 21.3866 19.5354 21.4455 19.4753 21.4932C19.4153 21.5409 19.3462 21.5764 19.2721 21.5977C19.1979 21.619 19.1202 21.6256 19.0435 21.6171Z" fill="black"/>
<path d="M27.1304 24.7679C26.9799 24.7648 26.8363 24.7046 26.7299 24.5999C26.6234 24.4953 26.5621 24.3542 26.559 24.2061V18.2096C26.559 18.0594 26.4992 17.9152 26.3924 17.8079C26.2856 17.7006 26.1403 17.6387 25.9876 17.6356H19.205C19.0663 17.6155 18.9397 17.5471 18.8481 17.4429C18.7565 17.3386 18.7061 17.2054 18.7061 17.0677C18.7061 16.9299 18.7565 16.7967 18.8481 16.6924C18.9397 16.5882 19.0663 16.5198 19.205 16.4998H25.9751C26.4342 16.503 26.8734 16.6845 27.1968 17.0048C27.5203 17.3251 27.7019 17.7582 27.7019 18.2096V24.2061C27.6987 24.3542 27.6375 24.4953 27.531 24.5999C27.4245 24.7046 27.281 24.7648 27.1304 24.7679Z" fill="black"/>
<path d="M29.4285 25.0001H0.571455C0.419903 25.0001 0.274574 24.9409 0.167411 24.8355C0.060247 24.7301 1.49646e-08 24.5873 1.49644e-08 24.4383C-3.45562e-05 24.2881 0.0598316 24.1439 0.166652 24.0366C0.273473 23.9293 0.418772 23.8675 0.571455 23.8643H29.4161C29.571 23.8643 29.7195 23.9247 29.829 24.0324C29.9385 24.14 30 24.286 30 24.4383C30 24.5873 29.9398 24.7301 29.8327 24.8355C29.7255 24.9409 29.5801 25.0001 29.4285 25.0001Z" fill="black"/>
</svg>
