<svg width="30" height="25" viewBox="0 0 30 25" fill="none" xmlns="http://www.w3.org/2000/svg">
<path d="M22.4969 24.9999C21.0279 24.9879 19.5953 24.5473 18.3799 23.7338C17.1644 22.9204 16.2203 21.7703 15.6666 20.4287C15.1129 19.0871 14.9743 17.6139 15.2684 16.1947C15.5625 14.7756 16.2761 13.474 17.3191 12.4541C18.3622 11.4341 19.6882 10.7414 21.1299 10.4632C22.5716 10.1851 24.0646 10.3339 25.4206 10.8909C26.7767 11.448 27.9352 12.3883 28.7501 13.5935C29.565 14.7987 29.9999 16.2147 30 17.6632C29.9804 19.6136 29.1816 21.4778 27.777 22.8513C26.3724 24.2248 24.4751 24.9968 22.4969 24.9999ZM22.4969 11.3535C21.2432 11.3536 20.0175 11.7196 18.9744 12.4054C17.9313 13.0912 17.1174 14.0661 16.6354 15.2072C16.1534 16.3484 16.0248 17.6047 16.2658 18.8178C16.5068 20.0309 17.1067 21.1465 17.9897 22.024C18.8728 22.9015 19.9995 23.5016 21.228 23.7486C22.4564 23.9957 23.7316 23.8787 24.8927 23.4123C26.0538 22.9459 27.0488 22.1511 27.7524 21.128C28.4561 20.1049 28.8368 18.8993 28.8466 17.6632C28.8515 16.8385 28.6908 16.021 28.3738 15.2579C28.0567 14.4947 27.5896 13.801 26.9993 13.2168C26.409 12.6325 25.7073 12.1692 24.9345 11.8536C24.1618 11.538 23.3333 11.3764 22.4969 11.378V11.3535Z" fill="black"/>
<path d="M22.4969 24.9999C21.0279 24.9879 19.5953 24.5473 18.3799 23.7338C17.1644 22.9204 16.2203 21.7703 15.6666 20.4287C15.1129 19.0871 14.9743 17.6139 15.2684 16.1947C15.5625 14.7756 16.2761 13.474 17.3191 12.4541C18.3622 11.4341 19.6882 10.7414 21.1299 10.4632C22.5716 10.1851 24.0646 10.3339 25.4206 10.8909C26.7767 11.448 27.9352 12.3883 28.7501 13.5935C29.565 14.7987 29.9999 16.2147 30 17.6632C29.9804 19.6136 29.1816 21.4778 27.777 22.8513C26.3724 24.2248 24.4751 24.9968 22.4969 24.9999ZM22.4969 11.3535C21.2432 11.3536 20.0175 11.7196 18.9744 12.4054C17.9313 13.0912 17.1174 14.0661 16.6354 15.2072C16.1534 16.3484 16.0248 17.6047 16.2658 18.8178C16.5068 20.0309 17.1067 21.1465 17.9897 22.024C18.8728 22.9015 19.9995 23.5016 21.228 23.7486C22.4564 23.9957 23.7316 23.8787 24.8927 23.4123C26.0538 22.9459 27.0488 22.1511 27.7524 21.128C28.4561 20.1049 28.8368 18.8993 28.8466 17.6632C28.8515 16.8385 28.6908 16.021 28.3738 15.2579C28.0567 14.4947 27.5896 13.801 26.9993 13.2168C26.409 12.6325 25.7073 12.1692 24.9345 11.8536C24.1618 11.538 23.3333 11.3764 22.4969 11.378V11.3535Z" fill="black" fill-opacity="0.2"/>
<path d="M19.5701 21.1237C19.4124 21.1228 19.2611 21.0614 19.1484 20.9525C19.0417 20.8471 18.9817 20.7041 18.9817 20.5551C18.9817 20.4061 19.0417 20.2632 19.1484 20.1577L24.9649 14.4228C25.074 14.3168 25.221 14.2573 25.3742 14.2573C25.5274 14.2573 25.6744 14.3168 25.7834 14.4228C25.8902 14.5283 25.9502 14.6712 25.9502 14.8202C25.9502 14.9692 25.8902 15.1122 25.7834 15.2176L19.967 20.9525C19.8588 21.0607 19.7117 21.1222 19.5577 21.1237H19.5701Z" fill="black"/>
<path d="M27.6809 9.66615C27.5371 9.65407 27.4031 9.58987 27.3046 9.48597C27.2061 9.38208 27.1501 9.24586 27.1476 9.10366V2.45167C27.1476 2.29924 27.209 2.15307 27.3183 2.04529C27.4276 1.93751 27.5759 1.87695 27.7305 1.87695C27.8851 1.87695 28.0333 1.93751 28.1426 2.04529C28.2519 2.15307 28.3134 2.29924 28.3134 2.45167V9.10366C28.3119 9.1824 28.2941 9.26001 28.2611 9.33168C28.228 9.40335 28.1802 9.46755 28.1209 9.52029C28.0616 9.57304 27.992 9.6132 27.9163 9.63829C27.8406 9.66338 27.7604 9.67286 27.6809 9.66615Z" fill="black"/>
<path d="M13.3072 22.7624H3.46012C2.99964 22.7624 2.55804 22.582 2.23243 22.261C1.90682 21.9399 1.72388 21.5045 1.72388 21.0505V17.6633C1.72388 17.5109 1.78529 17.3647 1.89461 17.257C2.00392 17.1492 2.15217 17.0886 2.30676 17.0886C2.46135 17.0886 2.60961 17.1492 2.71892 17.257C2.82823 17.3647 2.88965 17.5109 2.88965 17.6633V21.0749C2.88962 21.2253 2.94931 21.3696 3.05595 21.477C3.1626 21.5845 3.30769 21.6464 3.46012 21.6496H13.3072C13.4456 21.6697 13.5721 21.7382 13.6635 21.8426C13.755 21.947 13.8053 22.0803 13.8053 22.2182C13.8053 22.3562 13.755 22.4895 13.6635 22.5939C13.5721 22.6983 13.4456 22.7668 13.3072 22.7868V22.7624Z" fill="black"/>
<path d="M2.344 9.10371C2.19153 9.10375 2.04512 9.04488 1.93615 8.93974C1.82719 8.83459 1.76435 8.69152 1.76111 8.54123V5.12964C1.76111 4.67561 1.94405 4.24018 2.26966 3.91913C2.59527 3.59808 3.03687 3.41772 3.49736 3.41772H25.9075C26.0459 3.43779 26.1723 3.50627 26.2638 3.61066C26.3552 3.71505 26.4055 3.84839 26.4055 3.98633C26.4055 4.12427 26.3552 4.2576 26.2638 4.36199C26.1723 4.46638 26.0459 4.53486 25.9075 4.55492H3.46015C3.30772 4.55812 3.16262 4.62008 3.05598 4.72751C2.94934 4.83495 2.88964 4.97931 2.88968 5.12964V8.54123C2.88686 8.68538 2.82919 8.82323 2.72811 8.92742C2.62703 9.03161 2.48993 9.09454 2.344 9.10371Z" fill="black"/>
<path d="M25.9075 1.1433H2.34402C2.20561 1.12323 2.07913 1.05475 1.98769 0.950365C1.89624 0.845975 1.84595 0.712644 1.84595 0.574707C1.84595 0.43677 1.89624 0.30343 1.98769 0.19904C2.07913 0.0946502 2.20561 0.0261701 2.34402 0.00610352H25.9075C26.0459 0.0261701 26.1724 0.0946502 26.2638 0.19904C26.3553 0.30343 26.4056 0.43677 26.4056 0.574707C26.4056 0.712644 26.3553 0.845975 26.2638 0.950365C26.1724 1.05475 26.0459 1.12323 25.9075 1.1433Z" fill="black"/>
<path d="M25.9074 4.5549C25.8246 4.56691 25.7401 4.56119 25.6597 4.53813C25.5794 4.51507 25.505 4.4752 25.4416 4.42124C25.3783 4.36729 25.3274 4.30052 25.2926 4.22547C25.2577 4.15042 25.2397 4.06885 25.2397 3.98631C25.2397 3.90377 25.2577 3.8222 25.2926 3.74715C25.3274 3.67209 25.3783 3.60532 25.4416 3.55137C25.505 3.49741 25.5794 3.45755 25.6597 3.43449C25.7401 3.41143 25.8246 3.4057 25.9074 3.41771C26.2133 3.41771 26.5067 3.29789 26.723 3.08463C26.9393 2.87136 27.0608 2.58211 27.0608 2.28051C27.0608 1.97891 26.9393 1.68966 26.723 1.47639C26.5067 1.26312 26.2133 1.14331 25.9074 1.14331C25.8246 1.15532 25.7401 1.1496 25.6597 1.12654C25.5794 1.10347 25.505 1.0636 25.4416 1.00965C25.3783 0.9557 25.3274 0.888932 25.2926 0.813879C25.2577 0.738827 25.2397 0.657255 25.2397 0.574717C25.2397 0.492178 25.2577 0.410606 25.2926 0.335554C25.3274 0.260501 25.3783 0.193724 25.4416 0.139772C25.505 0.0858203 25.5794 0.0459602 25.6597 0.0228962C25.7401 -0.000167829 25.8246 -0.00589443 25.9074 0.00611303C26.5192 0.00611303 27.1059 0.24574 27.5385 0.672272C27.9711 1.0988 28.2141 1.6773 28.2141 2.28051C28.2141 2.88372 27.9711 3.46222 27.5385 3.88875C27.1059 4.31529 26.5192 4.5549 25.9074 4.5549Z" fill="black"/>
<path d="M8.64404 18.2136C8.48945 18.2136 8.3412 18.153 8.23189 18.0452C8.12257 17.9374 8.06116 17.7913 8.06116 17.6388C8.06116 17.4864 8.12257 17.3402 8.23189 17.2325C8.3412 17.1247 8.48945 17.0641 8.64404 17.0641C9.19298 17.0941 9.74238 17.0135 10.2586 16.827C10.7748 16.6405 11.2471 16.3522 11.6465 15.9797C12.0458 15.6071 12.3639 15.1582 12.5813 14.6603C12.7987 14.1624 12.9109 13.626 12.9109 13.0839C12.9109 12.5419 12.7987 12.0055 12.5813 11.5076C12.3639 11.0097 12.0458 10.5608 11.6465 10.1882C11.2471 9.81568 10.7748 9.52736 10.2586 9.3409C9.74238 9.15443 9.19298 9.07374 8.64404 9.10375C8.50563 9.08368 8.37919 9.0152 8.28775 8.91081C8.1963 8.80642 8.14597 8.67309 8.14597 8.53516C8.14597 8.39722 8.1963 8.26388 8.28775 8.15949C8.37919 8.0551 8.50563 7.98662 8.64404 7.96655C10.0222 7.96655 11.3439 8.50635 12.3185 9.4672C13.293 10.428 13.8404 11.7312 13.8404 13.0901C13.8404 14.4489 13.293 15.7521 12.3185 16.7129C11.3439 17.6738 10.0222 18.2136 8.64404 18.2136Z" fill="black"/>
<path d="M8.64407 18.2136H1.72387C1.26554 18.2103 0.827098 18.0286 0.504165 17.7079C0.181231 17.3872 -1.1692e-05 16.9536 5.65802e-10 16.5017V9.67847C-1.1692e-05 9.22656 0.181231 8.79296 0.504165 8.47227C0.827098 8.15157 1.26554 7.96979 1.72387 7.96656H8.64407C8.72689 7.95455 8.81137 7.96028 8.89174 7.98335C8.97212 8.00641 9.04654 8.04627 9.1099 8.10022C9.17325 8.15417 9.22407 8.22095 9.2589 8.296C9.29374 8.37106 9.31177 8.45263 9.31177 8.53517C9.31177 8.6177 9.29374 8.69927 9.2589 8.77432C9.22407 8.84937 9.17325 8.91615 9.1099 8.9701C9.04654 9.02405 8.97212 9.06391 8.89174 9.08698C8.81137 9.11004 8.72689 9.11577 8.64407 9.10376H1.72387C1.57144 9.10696 1.42634 9.16891 1.3197 9.27635C1.21306 9.38378 1.15336 9.52815 1.1534 9.67847V16.5017C1.1534 16.6508 1.21351 16.7939 1.32049 16.8994C1.42748 17.0049 1.57257 17.0641 1.72387 17.0641H8.64407C8.79866 17.0641 8.94695 17.1247 9.05627 17.2325C9.16558 17.3403 9.22696 17.4864 9.22696 17.6389C9.22696 17.7913 9.16558 17.9375 9.05627 18.0452C8.94695 18.153 8.79866 18.2136 8.64407 18.2136Z" fill="black"/>
<path d="M8.07361 13.0901C8.07361 13.315 8.14126 13.5349 8.26799 13.7219C8.39473 13.9089 8.57484 14.0546 8.78559 14.1407C8.99634 14.2268 9.22828 14.2493 9.45201 14.2054C9.67574 14.1615 9.88124 14.0532 10.0425 13.8942C10.2038 13.7352 10.3137 13.5325 10.3582 13.3119C10.4027 13.0913 10.3799 12.8627 10.2926 12.6549C10.2053 12.4471 10.0574 12.2695 9.86776 12.1445C9.67809 12.0196 9.45508 11.9529 9.22697 11.9529C8.92108 11.9529 8.62773 12.0727 8.41143 12.286C8.19514 12.4992 8.07361 12.7885 8.07361 13.0901Z" fill="black"/>
<path d="M18.9872 15.3645C18.9872 15.5894 19.0548 15.8093 19.1815 15.9963C19.3083 16.1833 19.4884 16.3291 19.6992 16.4151C19.9099 16.5012 20.1418 16.5237 20.3655 16.4798C20.5893 16.436 20.7948 16.3277 20.9561 16.1686C21.1174 16.0096 21.2272 15.8069 21.2717 15.5864C21.3162 15.3658 21.2934 15.1371 21.2061 14.9293C21.1188 14.7215 20.971 14.5439 20.7813 14.4189C20.5916 14.294 20.3687 14.2273 20.1405 14.2273C19.9891 14.2273 19.8391 14.2567 19.6992 14.3139C19.5592 14.371 19.4321 14.4548 19.325 14.5604C19.2179 14.666 19.1329 14.7913 19.075 14.9293C19.017 15.0673 18.9872 15.2152 18.9872 15.3645Z" fill="black"/>
<path d="M23.5883 19.8887C23.5883 20.1142 23.6562 20.3345 23.7835 20.5218C23.9108 20.709 24.0917 20.8548 24.3032 20.9405C24.5146 21.0262 24.7472 21.048 24.9712 21.0031C25.1953 20.9582 25.4008 20.8487 25.5616 20.6884C25.7224 20.5282 25.8312 20.3244 25.8743 20.103C25.9174 19.8816 25.8928 19.6526 25.8036 19.445C25.7144 19.2374 25.5646 19.0607 25.3733 18.9372C25.182 18.8137 24.9578 18.7491 24.7292 18.7515C24.4255 18.7548 24.1353 18.876 23.9217 19.0889C23.708 19.3018 23.5882 19.5892 23.5883 19.8887Z" fill="black"/>
</svg>
