<svg width="23" height="33" viewBox="0 0 23 33" fill="none" xmlns="http://www.w3.org/2000/svg">
<path d="M7.31797 5.70334C7.17981 5.70212 7.04587 5.65618 6.93654 5.57252C6.82721 5.48886 6.74847 5.37208 6.71244 5.23999L5.7904 1.95567C5.76292 1.86054 5.75858 1.76032 5.77771 1.66321C5.79685 1.56609 5.83894 1.47484 5.90052 1.39692C5.95701 1.31621 6.03351 1.25126 6.12269 1.2083C6.21187 1.16534 6.31071 1.14582 6.40971 1.15163C7.97753 1.15066 9.53627 0.916363 11.0338 0.4566C13.0293 -0.0612595 14.7495 -0.510978 16.7725 1.31516C16.8602 1.39146 16.9238 1.49123 16.9555 1.60245C16.9872 1.71366 16.9858 1.83159 16.9515 1.94204L16.1258 5.22636C16.0806 5.38816 15.9731 5.52594 15.8264 5.61005C15.6797 5.69415 15.5055 5.71787 15.3413 5.67608C15.2607 5.65407 15.1853 5.61645 15.1194 5.56539C15.0535 5.51433 14.9985 5.45085 14.9575 5.37862C14.9166 5.30639 14.8905 5.22685 14.8808 5.14457C14.871 5.0623 14.8779 4.97893 14.9009 4.8993L15.6578 2.01018C14.2816 0.933576 13.2357 1.20613 11.4054 1.69674C10.0614 2.08998 8.67595 2.32778 7.27673 2.40539L7.96484 4.91292C7.98785 4.99256 7.99471 5.07592 7.985 5.1582C7.97528 5.24047 7.94917 5.32002 7.90822 5.39226C7.86727 5.46449 7.81223 5.52796 7.74636 5.57902C7.68049 5.63007 7.60508 5.6677 7.52444 5.68971H7.3593L7.31797 5.70334Z" fill="black"/>
<path d="M15.3138 9.47831H7.63457C7.48098 9.45595 7.34059 9.37962 7.23911 9.26328C7.13764 9.14694 7.08179 8.99834 7.08179 8.84461C7.08179 8.69088 7.13764 8.54228 7.23911 8.42594C7.34059 8.3096 7.48098 8.23328 7.63457 8.21091H15.3138C15.4057 8.19753 15.4994 8.20391 15.5886 8.22962C15.6778 8.25532 15.7604 8.29975 15.8307 8.35988C15.901 8.42 15.9574 8.49443 15.9961 8.57807C16.0348 8.66172 16.0547 8.75262 16.0547 8.84461C16.0547 8.9366 16.0348 9.02751 15.9961 9.11116C15.9574 9.1948 15.901 9.26922 15.8307 9.32935C15.7604 9.38948 15.6778 9.43391 15.5886 9.45961C15.4994 9.48531 15.4057 9.49169 15.3138 9.47831Z" fill="black"/>
<path d="M11.3916 32.9318C9.27544 32.9311 7.20125 32.347 5.40144 31.2447C3.60163 30.1425 2.14731 28.5657 1.20149 26.6911C0.255669 24.8165 -0.144325 22.7182 0.0463576 20.6311C0.23704 18.5441 1.01088 16.5509 2.28111 14.8748L4.84084 11.5224C4.89224 11.4551 4.95657 11.3985 5.03009 11.356C5.10361 11.3134 5.18492 11.2856 5.26931 11.2742C5.35371 11.2628 5.43954 11.268 5.52189 11.2896C5.60425 11.3111 5.68149 11.3485 5.74919 11.3997C5.81563 11.4504 5.87118 11.5136 5.91273 11.5857C5.95429 11.6578 5.98103 11.7374 5.99127 11.8198C6.00151 11.9022 5.99511 11.9858 5.97246 12.0658C5.9498 12.1457 5.91128 12.2204 5.85923 12.2855L3.29949 15.638C2.17239 17.1261 1.48602 18.8957 1.31732 20.7483C1.14862 22.601 1.50426 24.4636 2.34436 26.1274C3.18445 27.7912 4.4758 29.1905 6.07376 30.1684C7.67171 31.1464 9.51312 31.6644 11.3916 31.6644C11.5452 31.6867 11.6855 31.7631 11.787 31.8794C11.8885 31.9957 11.9443 32.1443 11.9443 32.2981C11.9443 32.4518 11.8885 32.6004 11.787 32.7167C11.6855 32.8331 11.5452 32.9094 11.3916 32.9318Z" fill="black"/>
<path d="M11.5981 32.9319C11.5062 32.9453 11.4125 32.9389 11.3233 32.9132C11.2341 32.8875 11.1515 32.8431 11.0812 32.783C11.0109 32.7228 10.9545 32.6484 10.9158 32.5648C10.8772 32.4811 10.8572 32.3902 10.8572 32.2982C10.8572 32.2062 10.8772 32.1153 10.9158 32.0317C10.9545 31.948 11.0109 31.8736 11.0812 31.8135C11.1515 31.7534 11.2341 31.7089 11.3233 31.6832C11.4125 31.6575 11.5062 31.6512 11.5981 31.6645C13.4788 31.6696 15.3234 31.1547 16.9246 30.1778C18.5257 29.2009 19.8196 27.8008 20.6607 26.1351C21.5017 24.4694 21.8565 22.6043 21.685 20.7498C21.5136 18.8952 20.8227 17.1249 19.6903 15.6381L17.0892 12.2857C17.036 12.2205 16.9969 12.1452 16.9742 12.0645C16.9516 11.9837 16.9459 11.8992 16.9575 11.8162C16.9691 11.7332 16.9978 11.6534 17.0417 11.5818C17.0857 11.5102 17.1439 11.4483 17.213 11.3999C17.2796 11.349 17.3558 11.3119 17.437 11.2905C17.5183 11.2692 17.603 11.264 17.6862 11.2755C17.7695 11.2869 17.8497 11.3146 17.922 11.357C17.9944 11.3994 18.0574 11.4557 18.1076 11.5225L20.7086 14.9295C21.9828 16.6055 22.7599 18.6001 22.9527 20.6892C23.1455 22.7784 22.7464 24.8794 21.8001 26.7564C20.8538 28.6334 19.3978 30.2119 17.5957 31.3148C15.7936 32.4177 13.7167 33.0013 11.5981 33.0001V32.9319Z" fill="black"/>
<path d="M15.7542 15.8698C15.6398 15.8671 15.528 15.8357 15.4293 15.7785C15.3306 15.7212 15.2483 15.6401 15.19 15.5427L12.7816 11.3317V12.6945C12.759 12.8466 12.6819 12.9855 12.5644 13.086C12.447 13.1865 12.2968 13.2418 12.1416 13.2418C11.9864 13.2418 11.8363 13.1865 11.7188 13.086C11.6014 12.9855 11.5243 12.8466 11.5017 12.6945V8.87865C11.503 8.73829 11.5509 8.60225 11.638 8.49145C11.725 8.38065 11.8463 8.30123 11.9834 8.26539C12.1212 8.22612 12.2685 8.23439 12.4011 8.28887C12.5336 8.34334 12.6435 8.44078 12.7128 8.56521L16.3047 14.8749C16.3898 15.0215 16.4129 15.1954 16.3691 15.3587C16.3253 15.5221 16.2181 15.6617 16.0707 15.7471C15.9765 15.8121 15.868 15.8541 15.7542 15.8698Z" fill="black"/>
</svg>
