<svg width="25" height="25" viewBox="0 0 25 25" fill="none" xmlns="http://www.w3.org/2000/svg">
<path d="M19.3222 24.9782C18.8554 24.9736 18.3925 24.8928 17.9514 24.7387H17.8866C17.7159 24.697 17.5496 24.6387 17.39 24.5645C8.36608 20.5254 2.37531 11.7504 0.475531 7.67859C0.0284755 6.6977 -0.10773 5.60161 0.0854397 4.53978C0.27861 3.47794 0.791754 2.50203 1.55495 1.74512L2.63437 0.59107C3.03475 0.211382 3.56361 0 4.11317 0C4.66273 0 5.1916 0.211382 5.59197 0.59107L9.05694 3.96608C9.25341 4.16066 9.40947 4.39278 9.51601 4.64887C9.62254 4.90496 9.67742 5.17989 9.67742 5.45761C9.67742 5.73533 9.62254 6.01028 9.51601 6.26637C9.40947 6.52246 9.25341 6.75458 9.05694 6.94916L7.10319 8.9415C9.432 12.5264 12.4804 15.5788 16.0516 17.9016L18.0161 15.8984C18.4165 15.5187 18.9454 15.3073 19.4949 15.3073C20.0445 15.3073 20.5733 15.5187 20.9737 15.8984L24.3739 19.2734C24.5719 19.4671 24.7293 19.6989 24.8369 19.9551C24.9444 20.2113 24.9999 20.4867 25 20.7649C24.995 21.3217 24.7787 21.8555 24.3955 22.2564L23.2297 23.4431C22.3579 24.3193 21.2153 24.8686 19.9915 25H19.808H19.3438L19.3222 24.9782ZM4.13478 0.972126C3.99167 0.968417 3.84926 0.993467 3.71583 1.0458C3.58241 1.09814 3.46059 1.17671 3.35757 1.27696L2.22419 2.431C1.61182 3.0471 1.20252 3.8385 1.05187 4.69756C0.901226 5.55662 1.01659 6.44163 1.38227 7.23222C3.54111 11.8266 9.68297 19.981 17.8002 23.6173C17.9227 23.6705 18.049 23.7142 18.1781 23.748H18.2536C18.6851 23.9066 19.1445 23.9733 19.6029 23.9439H19.6677H19.8619C20.8523 23.836 21.7751 23.3859 22.4741 22.6701L23.6399 21.4943C23.7411 21.3931 23.8214 21.2727 23.8762 21.1401C23.931 21.0074 23.9592 20.8651 23.9592 20.7214C23.9592 20.5776 23.931 20.4353 23.8762 20.3027C23.8214 20.17 23.7411 20.0496 23.6399 19.9484L20.2505 16.5734C20.15 16.4697 20.0299 16.3873 19.8974 16.331C19.7649 16.2748 19.6226 16.2458 19.4788 16.2458C19.335 16.2458 19.1926 16.2748 19.0601 16.331C18.9276 16.3873 18.8075 16.4697 18.707 16.5734L16.4617 18.8488C16.3867 18.9282 16.2875 18.98 16.1798 18.9958C16.0722 19.0116 15.9624 18.9905 15.8681 18.9359C11.878 16.4481 8.50364 13.0745 6.00216 9.07214C5.94897 8.97484 5.92867 8.86273 5.94425 8.75274C5.95983 8.64274 6.01046 8.54086 6.08853 8.46247L8.31213 6.18705C8.41413 6.08622 8.49524 5.96599 8.55083 5.8333C8.60641 5.70061 8.63535 5.55812 8.63595 5.41407C8.63535 5.27003 8.60641 5.12753 8.55083 4.99484C8.49524 4.86215 8.41413 4.74191 8.31213 4.64108L4.93354 1.26608C4.82707 1.16509 4.70138 1.08696 4.56407 1.03643C4.42677 0.985903 4.28072 0.964026 4.13478 0.972126Z" fill="black"/>
<path d="M5.8187 6.02373C5.68843 6.01957 5.56473 5.96499 5.47328 5.87131L1.79248 2.22412C1.74571 2.17766 1.70844 2.12236 1.68285 2.06137C1.65727 2.00039 1.64383 1.93492 1.64333 1.8687C1.64282 1.80248 1.65529 1.73682 1.67996 1.67545C1.70462 1.61408 1.74101 1.5582 1.78708 1.51102C1.83315 1.46384 1.88796 1.42627 1.94843 1.40046C2.00889 1.37466 2.07383 1.36112 2.13949 1.36061C2.20514 1.3601 2.27023 1.37265 2.33107 1.39752C2.39192 1.4224 2.44729 1.45912 2.49407 1.50559L6.17493 5.15276C6.26853 5.24851 6.32099 5.37757 6.32099 5.51204C6.32099 5.6465 6.26853 5.77557 6.17493 5.87131C6.07685 5.96825 5.94521 6.0229 5.8079 6.02373H5.8187Z" fill="black"/>
<path d="M23.0894 23.2037C22.9591 23.1995 22.8354 23.1449 22.744 23.0513L19.1495 19.4912C19.0559 19.3954 19.0034 19.2664 19.0034 19.1319C19.0034 18.9974 19.0559 18.8684 19.1495 18.7726C19.2426 18.6789 19.3688 18.6262 19.5003 18.6262C19.6319 18.6262 19.758 18.6789 19.8511 18.7726L23.4456 22.3327C23.5156 22.4042 23.5631 22.495 23.5823 22.5935C23.6014 22.6921 23.5914 22.7942 23.5534 22.8871C23.5154 22.98 23.4511 23.0596 23.3686 23.1158C23.2861 23.1721 23.189 23.2027 23.0894 23.2037Z" fill="black"/>
</svg>
