<svg width="30" height="33" viewBox="0 0 30 33" fill="none" xmlns="http://www.w3.org/2000/svg">
<path d="M7.43319 32.9591C7.2598 32.979 7.08466 32.979 6.91126 32.9591C6.66836 32.893 6.44123 32.7795 6.24313 32.6254C6.04503 32.4713 5.87995 32.2797 5.75754 32.0617L0.0850571 22.1629C0.0433148 22.0915 0.0162399 22.0127 0.00538647 21.9309C-0.00546697 21.8492 0.000116754 21.7661 0.0218173 21.6865C0.0435178 21.6068 0.0809042 21.5323 0.131829 21.467C0.182755 21.4018 0.24621 21.3471 0.318547 21.3062C0.464943 21.2264 0.636934 21.2058 0.79832 21.2489C0.959707 21.292 1.09791 21.3954 1.18384 21.5374L6.87006 31.3955C6.90876 31.4696 6.96238 31.5351 7.0276 31.5879C7.09282 31.6408 7.16827 31.6799 7.24932 31.7028C7.33037 31.7257 7.41529 31.732 7.49887 31.7212C7.58246 31.7105 7.66293 31.6829 7.73535 31.6402L26.6207 20.9799C26.7684 20.8958 26.9437 20.8729 27.1084 20.9162C27.273 20.9595 27.4137 21.0655 27.4998 21.2111C27.541 21.2832 27.5672 21.3628 27.5771 21.4451C27.587 21.5274 27.5802 21.6109 27.5572 21.6906C27.5342 21.7703 27.4954 21.8447 27.4431 21.9094C27.3908 21.9741 27.326 22.0279 27.2525 22.0677L8.38089 32.7416C8.09153 32.9042 7.76585 32.993 7.43319 32.9999V32.9591Z" fill="white"/>
<path d="M8.86163 27.7923C8.68824 27.8122 8.5131 27.8122 8.3397 27.7923C8.0968 27.7261 7.86967 27.6126 7.67157 27.4585C7.47348 27.3045 7.3084 27.1128 7.18598 26.8948L1.49977 16.9552C1.44155 16.8117 1.43785 16.6521 1.48938 16.5062C1.54091 16.3602 1.64417 16.2376 1.78 16.1613C1.91583 16.0849 2.07502 16.0599 2.22807 16.0909C2.38111 16.1218 2.51762 16.2067 2.61228 16.3297L8.2985 26.2422C8.3398 26.3138 8.395 26.3766 8.46091 26.427C8.52683 26.4774 8.60216 26.5144 8.68258 26.5359C8.763 26.5574 8.84692 26.5629 8.9295 26.5522C9.01209 26.5414 9.09171 26.5146 9.16379 26.4733L28.0492 15.7722C28.1231 15.7311 28.2045 15.7049 28.2887 15.6949C28.3729 15.685 28.4583 15.6916 28.5399 15.7143C28.6215 15.737 28.6978 15.7755 28.7645 15.8274C28.8311 15.8793 28.8867 15.9437 28.9282 16.017C28.9694 16.0891 28.9957 16.1687 29.0055 16.251C29.0154 16.3333 29.0086 16.4168 28.9856 16.4965C28.9626 16.5762 28.9238 16.6506 28.8715 16.7153C28.8192 16.7801 28.7545 16.8339 28.681 16.8736L9.80933 27.6019C9.51893 27.7603 9.19319 27.8444 8.86163 27.8466V27.7923Z" fill="white"/>
<path d="M10.3175 22.6524C10.1404 22.6518 9.96433 22.6243 9.7956 22.5709C9.5526 22.5092 9.32491 22.3989 9.12651 22.2469C8.92811 22.0949 8.76319 21.9044 8.64188 21.687L3.57372 12.8624C3.44874 12.6464 3.36807 12.4082 3.33633 12.1613C3.30458 11.9144 3.3224 11.6638 3.38876 11.4237C3.45512 11.1837 3.56871 10.959 3.72302 10.7625C3.87732 10.566 4.06931 10.4017 4.28794 10.2789L22.0608 0.257627C22.2782 0.130897 22.5191 0.0487417 22.7692 0.0160391C23.0193 -0.0166635 23.2735 0.000754765 23.5167 0.0672656C23.7615 0.133219 23.9906 0.246466 24.191 0.400487C24.3914 0.554508 24.559 0.746265 24.6842 0.964694L29.7523 9.77576C30.001 10.2127 30.0655 10.7292 29.9318 11.2129C29.7981 11.6967 29.4769 12.1086 29.0381 12.3593L11.2515 22.3941C10.9676 22.5578 10.646 22.6467 10.3175 22.6524ZM23.0634 1.26383C22.9527 1.26315 22.8438 1.29129 22.7475 1.34542L4.91974 11.3802C4.84536 11.4194 4.78005 11.4734 4.72801 11.539C4.67597 11.6046 4.63836 11.6802 4.61757 11.761C4.59429 11.8406 4.58838 11.9242 4.60022 12.0062C4.61206 12.0883 4.64139 12.1669 4.68625 12.2369L9.7544 21.0615C9.84303 21.203 9.97921 21.3089 10.139 21.3607C10.2146 21.3941 10.2965 21.4113 10.3793 21.4113C10.4622 21.4113 10.544 21.3941 10.6197 21.3607L28.475 11.3259C28.5473 11.285 28.6108 11.2303 28.6617 11.1651C28.7126 11.0998 28.75 11.0252 28.7717 10.9456C28.7934 10.866 28.799 10.7829 28.7881 10.7012C28.7773 10.6194 28.7502 10.5406 28.7085 10.4692L23.6403 1.65815C23.5567 1.51236 23.4186 1.40493 23.2557 1.35901H23.0772L23.0634 1.26383Z" fill="white"/>
<path d="M14.9325 12.903C14.8214 12.9021 14.7126 12.8728 14.6163 12.818C14.5201 12.7632 14.4397 12.6848 14.3831 12.5903C14.3391 12.5184 14.3103 12.4384 14.2983 12.3552C14.2863 12.272 14.2913 12.1873 14.3131 12.1061C14.3349 12.0249 14.373 11.9488 14.4251 11.8825C14.4773 11.8162 14.5424 11.7609 14.6165 11.7201L16.9789 10.3603C17.1974 10.2376 17.3577 10.0341 17.4247 9.79443C17.4916 9.55476 17.4598 9.29859 17.336 9.08218C17.2737 8.96534 17.1874 8.86264 17.0827 8.78062C16.978 8.69861 16.8572 8.63908 16.728 8.60582C16.5988 8.57256 16.464 8.56631 16.3322 8.58746C16.2004 8.60861 16.0745 8.6567 15.9626 8.72866L13.6963 10.0068C13.5514 10.0644 13.3902 10.0681 13.2428 10.0171C13.0953 9.96606 12.9715 9.86384 12.8944 9.72937C12.8172 9.5949 12.792 9.43729 12.8233 9.28578C12.8545 9.13427 12.9403 8.99914 13.0645 8.90542L15.3308 7.62727C15.5845 7.48378 15.8646 7.39184 16.1547 7.35682C16.4448 7.3218 16.739 7.34441 17.0201 7.42332C17.3089 7.49193 17.5801 7.61922 17.8166 7.79712C18.053 7.97502 18.2495 8.19963 18.3936 8.45671C18.5408 8.7082 18.6363 8.98605 18.6746 9.27425C18.7128 9.56244 18.6931 9.85528 18.6164 10.1359C18.5398 10.4165 18.4079 10.6793 18.2282 10.9092C18.0485 11.1391 17.8247 11.3315 17.5695 11.4753L15.2071 12.835C15.1109 12.8892 15.002 12.9173 14.8913 12.9166L14.9325 12.903Z" fill="white"/>
<path d="M16.5668 15.6363C16.4541 15.6353 16.3438 15.6046 16.2472 15.5472C16.1506 15.4898 16.0713 15.4079 16.0174 15.31L12.8584 9.87104C12.8169 9.79962 12.79 9.72081 12.7793 9.6391C12.7686 9.5574 12.7743 9.4744 12.7959 9.39486C12.8176 9.31531 12.8549 9.24077 12.9057 9.17549C12.9565 9.11021 13.0197 9.05548 13.0919 9.01441C13.164 8.97334 13.2437 8.94674 13.3262 8.93613C13.4087 8.92552 13.4925 8.93111 13.5729 8.95257C13.6532 8.97404 13.7285 9.01096 13.7945 9.06123C13.8604 9.1115 13.9157 9.17414 13.9572 9.24557L17.1162 14.6845C17.1752 14.7801 17.2073 14.8896 17.209 15.0016C17.2107 15.1136 17.182 15.224 17.1258 15.3212C17.0697 15.4185 16.9882 15.4991 16.8898 15.5545C16.7915 15.6099 16.6799 15.6382 16.5668 15.6363Z" fill="white"/>
<path d="M14.905 15.1059C14.7919 15.1059 14.6807 15.0772 14.5821 15.0224C14.4835 14.9677 14.4008 14.8887 14.3419 14.7931C14.3007 14.721 14.2744 14.6414 14.2645 14.5591C14.2547 14.4768 14.2614 14.3933 14.2844 14.3136C14.3074 14.2339 14.3462 14.1595 14.3985 14.0948C14.4508 14.03 14.5156 13.9762 14.5891 13.9365L17.9404 12.0465C18.012 12.0033 18.0917 11.9749 18.1747 11.9632C18.2577 11.9514 18.3422 11.9565 18.4232 11.9782C18.5041 11.9998 18.5798 12.0375 18.6455 12.089C18.7113 12.1404 18.7658 12.2046 18.8057 12.2776C18.8474 12.349 18.8745 12.4278 18.8854 12.5096C18.8962 12.5913 18.8906 12.6744 18.8689 12.754C18.8472 12.8336 18.8098 12.9082 18.7589 12.9735C18.708 13.0387 18.6445 13.0934 18.5722 13.1343L15.2209 15.0243C15.1232 15.0748 15.0152 15.1027 14.905 15.1059Z" fill="white"/>
<path d="M13.9434 13.4605C13.8049 13.4557 13.6716 13.4069 13.5632 13.3213C13.4548 13.2357 13.3772 13.1179 13.3418 12.9852C13.3063 12.8525 13.315 12.712 13.3665 12.5846C13.4179 12.4571 13.5095 12.3495 13.6275 12.2776L16.9788 10.3875C17.1273 10.3069 17.3014 10.286 17.4651 10.329C17.6287 10.372 17.7694 10.4758 17.8579 10.6187C17.8994 10.6919 17.9259 10.7725 17.9359 10.8558C17.946 10.9392 17.9393 11.0237 17.9164 11.1045C17.8934 11.1853 17.8546 11.2609 17.8021 11.3268C17.7497 11.3928 17.6846 11.4479 17.6106 11.4889L14.2593 13.3789C14.1631 13.4331 14.0541 13.4612 13.9434 13.4605Z" fill="white"/>
</svg>
