<svg width="30" height="22" viewBox="0 0 30 22" fill="none" xmlns="http://www.w3.org/2000/svg">
<path d="M5.43229 16.9079C2.40919 16.9079 0.032959 15.5239 0.032959 13.7483C0.032959 11.9726 2.40919 10.5886 5.43229 10.5886C8.45539 10.5886 10.8448 11.9726 10.8448 13.7483C10.8448 15.5239 8.44219 16.9079 5.43229 16.9079ZM5.43229 11.8029C2.97685 11.8029 1.26067 12.8343 1.26067 13.7483C1.26067 14.6622 2.97685 15.6937 5.43229 15.6937C7.88774 15.6937 9.61711 14.6753 9.61711 13.7483C9.61711 12.8213 7.87454 11.8029 5.43229 11.8029Z" fill="white"/>
<path d="M5.43229 21.9999C2.40919 21.9999 0.032959 20.616 0.032959 18.8403C0.0546229 18.6946 0.128544 18.5614 0.241244 18.4652C0.353944 18.3689 0.497898 18.3159 0.646815 18.3159C0.795732 18.3159 0.939687 18.3689 1.05239 18.4652C1.16509 18.5614 1.23901 18.6946 1.26067 18.8403C1.26067 19.7542 2.97685 20.7857 5.43229 20.7857C7.88774 20.7857 9.61711 19.7673 9.61711 18.8403C9.63877 18.6946 9.71271 18.5614 9.82541 18.4652C9.93811 18.3689 10.082 18.3159 10.231 18.3159C10.3799 18.3159 10.5238 18.3689 10.6365 18.4652C10.7492 18.5614 10.8232 18.6946 10.8448 18.8403C10.8184 20.6029 8.44219 21.9999 5.43229 21.9999Z" fill="white"/>
<path d="M0.627066 19.4411C0.464771 19.4411 0.308918 19.3782 0.192931 19.266C0.0769437 19.1537 0.0100554 19.0009 0.00660234 18.8405V13.8138C-0.00636095 13.7266 -0.000188561 13.6376 0.0247114 13.553C0.0496115 13.4684 0.0926647 13.3901 0.150911 13.3234C0.209158 13.2567 0.281231 13.2032 0.362258 13.1665C0.443285 13.1298 0.53135 13.1108 0.620459 13.1108C0.709568 13.1108 0.797633 13.1298 0.87866 13.1665C0.959687 13.2032 1.03178 13.2567 1.09003 13.3234C1.14827 13.3901 1.19131 13.4684 1.21621 13.553C1.24111 13.6376 1.2473 13.7266 1.23434 13.8138V18.9058C1.21527 19.0524 1.14334 19.1872 1.03177 19.2856C0.920207 19.3839 0.7765 19.4391 0.627066 19.4411Z" fill="white"/>
<path d="M10.198 19.441C10.0357 19.441 9.87984 19.3782 9.76385 19.2659C9.64787 19.1536 9.58098 19.0009 9.57753 18.8404V8.39531C9.56456 8.30811 9.57073 8.21918 9.59563 8.13456C9.62053 8.04994 9.66359 7.97162 9.72183 7.90493C9.78008 7.83823 9.85215 7.78472 9.93318 7.74805C10.0142 7.71137 10.1023 7.69238 10.1914 7.69238C10.2805 7.69238 10.3686 7.71137 10.4496 7.74805C10.5306 7.78472 10.6027 7.83823 10.6609 7.90493C10.7192 7.97162 10.7622 8.04994 10.7871 8.13456C10.812 8.21918 10.8182 8.30811 10.8053 8.39531V18.8404C10.8019 18.9987 10.7368 19.1495 10.6237 19.2614C10.5105 19.3733 10.358 19.4377 10.198 19.441Z" fill="white"/>
<path d="M14.9901 11.5026C11.9538 11.5026 9.57751 10.1187 9.57751 8.34299C9.57751 6.56732 11.9538 5.18335 14.9901 5.18335C18.0264 5.18335 20.3894 6.56732 20.3894 8.34299C20.3894 10.1187 18.0132 11.5026 14.9901 11.5026ZM14.9901 6.39759C12.5214 6.39759 10.8052 7.42904 10.8052 8.34299C10.8052 9.25694 12.5214 10.2884 14.9901 10.2884C17.4587 10.2884 19.1617 9.26999 19.1617 8.34299C19.1617 7.41599 17.4455 6.39759 14.9901 6.39759Z" fill="white"/>
<path d="M11.9142 16.3075C11.8271 16.3259 11.7372 16.3259 11.6501 16.3075C11.0979 16.1345 10.6083 15.8068 10.2404 15.3642C9.87259 14.9216 9.64233 14.3831 9.57753 13.8138C9.56456 13.7266 9.57073 13.6376 9.59563 13.553C9.62053 13.4684 9.66359 13.3901 9.72183 13.3234C9.78008 13.2567 9.85215 13.2032 9.93318 13.1665C10.0142 13.1298 10.1023 13.1108 10.1914 13.1108C10.2805 13.1108 10.3686 13.1298 10.4496 13.1665C10.5306 13.2032 10.6027 13.2567 10.6609 13.3234C10.7192 13.3901 10.7622 13.4684 10.7871 13.553C10.812 13.6376 10.8182 13.7266 10.8053 13.8138C10.8053 14.3099 11.3069 14.8322 12.1254 15.2108C12.1983 15.2432 12.264 15.2896 12.3188 15.3472C12.3735 15.4049 12.4163 15.4726 12.4445 15.5466C12.4727 15.6206 12.4858 15.6994 12.4832 15.7785C12.4805 15.8575 12.4621 15.9353 12.429 16.0072C12.38 16.1131 12.3022 16.2034 12.2043 16.2679C12.1064 16.3325 11.9922 16.3688 11.8746 16.3728L11.9142 16.3075Z" fill="white"/>
<path d="M15.505 16.8948C15.427 16.8966 15.3494 16.8831 15.2766 16.8552C15.2039 16.8272 15.1374 16.7854 15.081 16.732C15.0246 16.6787 14.9794 16.6149 14.948 16.5442C14.9165 16.4736 14.8994 16.3975 14.8977 16.3204C14.8924 16.2415 14.9028 16.1623 14.9285 16.0874C14.9541 16.0125 14.9945 15.9433 15.0472 15.8839C15.0999 15.8244 15.164 15.7759 15.2358 15.741C15.3076 15.7061 15.3856 15.6856 15.4654 15.6806C17.7492 15.537 19.1486 14.5708 19.1486 13.7483C19.1702 13.6025 19.2442 13.4694 19.3569 13.3731C19.4696 13.2769 19.6135 13.2239 19.7624 13.2239C19.9113 13.2239 20.0553 13.2769 20.168 13.3731C20.2807 13.4694 20.3546 13.6025 20.3763 13.7483C20.3763 15.4064 18.3433 16.7251 15.5446 16.8948H15.505Z" fill="white"/>
<path d="M14.9901 21.9999C11.9538 21.9999 9.57751 20.616 9.57751 18.8403C9.59918 18.6946 9.67312 18.5614 9.78582 18.4652C9.89852 18.3689 10.0425 18.3159 10.1914 18.3159C10.3403 18.3159 10.4842 18.3689 10.5969 18.4652C10.7096 18.5614 10.7836 18.6946 10.8052 18.8403C10.8052 19.7542 12.5214 20.7857 14.9901 20.7857C17.4587 20.7857 19.1617 19.7673 19.1617 18.8403C19.1833 18.6946 19.2573 18.5614 19.37 18.4652C19.4827 18.3689 19.6266 18.3159 19.7755 18.3159C19.9245 18.3159 20.0684 18.3689 20.1811 18.4652C20.2938 18.5614 20.3677 18.6946 20.3894 18.8403C20.3894 20.6029 18.0132 21.9999 14.9901 21.9999Z" fill="white"/>
<path d="M19.769 19.2581C19.609 19.2548 19.4565 19.1905 19.3433 19.0786C19.2302 18.9666 19.1651 18.8158 19.1617 18.6576V3.15962C19.1834 3.01391 19.2573 2.88076 19.37 2.78449C19.4827 2.68822 19.6267 2.63525 19.7756 2.63525C19.9245 2.63525 20.0685 2.68822 20.1812 2.78449C20.2939 2.88076 20.3678 3.01391 20.3895 3.15962V18.6576C20.386 18.818 20.3191 18.9708 20.2031 19.0831C20.0872 19.1953 19.9313 19.2582 19.769 19.2581Z" fill="white"/>
<path d="M24.5611 6.30623C21.5248 6.30623 19.1486 4.92225 19.1486 3.15964C19.1486 1.39703 21.5248 0 24.5611 0C27.5974 0 29.9604 1.38397 29.9604 3.15964C29.9604 4.93531 27.5842 6.31929 24.5611 6.31929V6.30623ZM24.5611 1.21424C22.0925 1.21424 20.3763 2.23264 20.3763 3.15964C20.3763 4.08664 22.0925 5.10505 24.5611 5.10505C27.0298 5.10505 28.7327 4.08664 28.7327 3.15964C28.7327 2.23264 27.0166 1.21424 24.5611 1.21424Z" fill="white"/>
<path d="M24.5611 21.9999C21.5248 21.9999 19.1486 20.616 19.1486 18.8403C19.1702 18.6946 19.2442 18.5614 19.3569 18.4652C19.4696 18.3689 19.6135 18.3159 19.7624 18.3159C19.9113 18.3159 20.0553 18.3689 20.168 18.4652C20.2807 18.5614 20.3546 18.6946 20.3763 18.8403C20.3763 19.7542 22.0925 20.7857 24.5611 20.7857C27.0298 20.7857 28.7327 19.7673 28.7327 18.8403C28.7544 18.6946 28.8283 18.5614 28.941 18.4652C29.0537 18.3689 29.1977 18.3159 29.3466 18.3159C29.4955 18.3159 29.6394 18.3689 29.7521 18.4652C29.8648 18.5614 29.9388 18.6946 29.9604 18.8403C29.9604 20.6029 27.5842 21.9999 24.5611 21.9999Z" fill="white"/>
<path d="M29.3399 19.2581C29.1799 19.2548 29.0274 19.1905 28.9143 19.0786C28.8011 18.9666 28.736 18.8158 28.7327 18.6576V3.15962C28.7543 3.01391 28.8283 2.88076 28.941 2.78449C29.0537 2.68822 29.1976 2.63525 29.3465 2.63525C29.4955 2.63525 29.6394 2.68822 29.7521 2.78449C29.8648 2.88076 29.9387 3.01391 29.9604 3.15962V18.6576C29.9569 18.818 29.8901 18.9708 29.7741 19.0831C29.6581 19.1953 29.5022 19.2582 29.3399 19.2581Z" fill="white"/>
<path d="M21.4852 16.3075C21.3983 16.3271 21.3081 16.3271 21.2212 16.3075C20.6681 16.1359 20.1776 15.8087 19.8095 15.3658C19.4414 14.9229 19.2118 14.3836 19.1486 13.8138C19.1356 13.7266 19.1418 13.6376 19.1667 13.553C19.1916 13.4684 19.2346 13.3901 19.2929 13.3234C19.3511 13.2567 19.4232 13.2032 19.5042 13.1665C19.5853 13.1298 19.6733 13.1108 19.7624 13.1108C19.8515 13.1108 19.9396 13.1298 20.0206 13.1665C20.1017 13.2032 20.1737 13.2567 20.232 13.3234C20.2902 13.3901 20.3333 13.4684 20.3582 13.553C20.3831 13.6376 20.3893 13.7266 20.3763 13.8138C20.3763 14.3099 20.878 14.8322 21.6964 15.2108C21.7694 15.2432 21.8351 15.2896 21.8898 15.3472C21.9446 15.4049 21.9873 15.4726 22.0155 15.5466C22.0437 15.6206 22.0569 15.6994 22.0542 15.7785C22.0516 15.8575 22.0332 15.9353 22.0001 16.0072C21.9511 16.1131 21.8733 16.2034 21.7753 16.2679C21.6774 16.3325 21.5632 16.3688 21.4456 16.3728L21.4852 16.3075Z" fill="white"/>
<path d="M25.0892 16.8948C24.9418 16.8734 24.8072 16.8003 24.7099 16.6888C24.6125 16.5774 24.559 16.435 24.559 16.2877C24.559 16.1404 24.6125 15.9981 24.7099 15.8866C24.8072 15.7752 24.9418 15.702 25.0892 15.6806C27.3598 15.537 28.7723 14.5708 28.7723 13.7483C28.794 13.6025 28.8679 13.4694 28.9806 13.3731C29.0933 13.2769 29.2373 13.2239 29.3862 13.2239C29.5351 13.2239 29.679 13.2769 29.7917 13.3731C29.9044 13.4694 29.9784 13.6025 30.0001 13.7483C30.0001 15.4064 27.9671 16.7251 25.1552 16.8948H25.0892Z" fill="white"/>
<path d="M21.4852 10.9412C21.3977 10.9547 21.3087 10.9547 21.2212 10.9412C20.6662 10.7687 20.1744 10.4395 19.8061 9.99409C19.4379 9.5487 19.2093 9.00655 19.1486 8.43436C19.1356 8.34717 19.1418 8.25823 19.1667 8.17361C19.1916 8.08899 19.2346 8.01068 19.2929 7.94398C19.3511 7.87728 19.4232 7.82377 19.5042 7.7871C19.5853 7.75042 19.6733 7.73145 19.7624 7.73145C19.8515 7.73145 19.9396 7.75042 20.0206 7.7871C20.1017 7.82377 20.1737 7.87728 20.232 7.94398C20.2902 8.01068 20.3333 8.08899 20.3582 8.17361C20.3831 8.25823 20.3893 8.34717 20.3763 8.43436C20.3763 8.9305 20.878 9.45276 21.6964 9.83139C21.7694 9.86384 21.8351 9.91021 21.8898 9.96784C21.9446 10.0255 21.9873 10.0932 22.0155 10.1672C22.0437 10.2412 22.0569 10.32 22.0542 10.3991C22.0516 10.4781 22.0332 10.5558 22.0001 10.6278C21.9505 10.7322 21.8721 10.8206 21.7741 10.8829C21.676 10.9453 21.5622 10.9791 21.4456 10.9804L21.4852 10.9412Z" fill="white"/>
<path d="M25.0891 11.5289C24.9321 11.5262 24.7817 11.4659 24.667 11.3598C24.5524 11.2536 24.4817 11.1092 24.4686 10.9544C24.4633 10.8744 24.4741 10.7942 24.5006 10.7185C24.5271 10.6428 24.5686 10.5731 24.6227 10.5134C24.6768 10.4538 24.7425 10.4055 24.8158 10.3714C24.8891 10.3372 24.9685 10.3179 25.0495 10.3146C27.3201 10.171 28.7326 9.20483 28.7326 8.38228C28.7543 8.23656 28.8282 8.10342 28.9409 8.00715C29.0536 7.91088 29.1976 7.85791 29.3465 7.85791C29.4954 7.85791 29.6394 7.91088 29.7521 8.00715C29.8648 8.10342 29.9387 8.23656 29.9604 8.38228C29.9604 10.0404 27.9274 11.3591 25.1155 11.5289H25.0891Z" fill="white"/>
</svg>
