<svg width="30" height="18" viewBox="0 0 30 18" fill="none" xmlns="http://www.w3.org/2000/svg">
<path d="M8.65128 17.9999C8.07333 18.0023 7.50762 17.8326 7.02605 17.5124C6.54448 17.1921 6.16874 16.7357 5.94644 16.201C5.72413 15.6664 5.66535 15.0776 5.7775 14.5094C5.88965 13.9411 6.16769 13.4191 6.57636 13.0095C6.98503 12.6 7.5059 12.3213 8.07287 12.2089C8.63983 12.0965 9.22733 12.1554 9.76082 12.3782C10.2943 12.601 10.7497 12.9776 11.0693 13.4603C11.3889 13.9429 11.5581 14.5098 11.5557 15.089C11.5524 15.86 11.2453 16.5985 10.7013 17.1437C10.1574 17.6889 9.42057 17.9966 8.65128 17.9999ZM8.65128 13.3226C8.30268 13.3226 7.96188 13.4262 7.67204 13.6203C7.38219 13.8144 7.15627 14.0903 7.02287 14.4131C6.88947 14.7358 6.85456 15.091 6.92257 15.4336C6.99058 15.7763 7.1585 16.091 7.40499 16.3381C7.65148 16.5851 7.96552 16.7533 8.30741 16.8215C8.64931 16.8897 9.00369 16.8547 9.32574 16.721C9.6478 16.5873 9.92306 16.3609 10.1167 16.0704C10.3104 15.7799 10.4138 15.4384 10.4138 15.089C10.4138 14.6205 10.2281 14.1712 9.89756 13.84C9.56702 13.5087 9.11872 13.3226 8.65128 13.3226Z" fill="black"/>
<path d="M24.278 17.9999C23.7006 17.9999 23.1361 17.8281 22.6562 17.5064C22.1763 17.1846 21.8024 16.7273 21.582 16.1924C21.3616 15.6575 21.3046 15.0691 21.4182 14.5017C21.5317 13.9343 21.8107 13.4134 22.2199 13.0051C22.6291 12.5968 23.15 12.3194 23.7166 12.208C24.2833 12.0966 24.8701 12.1563 25.4029 12.3794C25.9356 12.6026 26.3903 12.9792 26.7093 13.4616C27.0283 13.9439 27.1974 14.5103 27.1949 15.089C27.1949 15.4723 27.1194 15.8519 26.9726 16.2058C26.8259 16.5598 26.6108 16.8813 26.3398 17.1517C26.0688 17.4222 25.7471 17.6363 25.3933 17.7819C25.0395 17.9274 24.6605 18.0015 24.278 17.9999ZM24.278 13.3226C23.9294 13.3226 23.5887 13.4262 23.2988 13.6203C23.009 13.8144 22.7831 14.0903 22.6497 14.4131C22.5163 14.7358 22.4814 15.091 22.5494 15.4336C22.6174 15.7763 22.7852 16.091 23.0317 16.3381C23.2782 16.5851 23.5923 16.7534 23.9341 16.8215C24.276 16.8897 24.6304 16.8547 24.9525 16.721C25.2745 16.5873 25.5498 16.3609 25.7435 16.0704C25.9371 15.7799 26.0405 15.4384 26.0405 15.089C26.0405 14.6205 25.8548 14.1713 25.5243 13.84C25.1938 13.5087 24.7455 13.3226 24.278 13.3226Z" fill="black"/>
<path d="M21.8328 15.5743H11.2329C11.1569 15.576 11.0813 15.5624 11.0106 15.5344C10.9399 15.5064 10.8755 15.4645 10.8211 15.4112C10.7668 15.3579 10.7236 15.2943 10.6942 15.224C10.6647 15.1538 10.6495 15.0783 10.6495 15.0021C10.6495 14.9254 10.6646 14.8493 10.6939 14.7784C10.7232 14.7075 10.7662 14.643 10.8204 14.5887C10.8745 14.5344 10.9388 14.4914 11.0096 14.462C11.0804 14.4326 11.1563 14.4175 11.2329 14.4175H21.8328C21.9876 14.4175 22.1359 14.479 22.2453 14.5887C22.3547 14.6983 22.4162 14.8471 22.4162 15.0021C22.4162 15.0783 22.401 15.1538 22.3715 15.224C22.3421 15.2943 22.2989 15.3579 22.2446 15.4112C22.1902 15.4645 22.1258 15.5064 22.0551 15.5344C21.9844 15.5624 21.9089 15.576 21.8328 15.5743Z" fill="black"/>
<path d="M26.8225 15.5743C26.6897 15.5799 26.5594 15.5379 26.4547 15.4558C26.3501 15.3738 26.2781 15.257 26.2516 15.1264C26.2218 14.975 26.2516 14.8178 26.3349 14.6879C26.4183 14.558 26.5485 14.4655 26.6984 14.4298L28.4113 14.0691C28.5393 14.0382 28.653 13.9649 28.7342 13.861C28.8153 13.7571 28.859 13.6288 28.8581 13.4969V7.45129L27.9272 1.65448C27.9088 1.51713 27.8403 1.3915 27.7349 1.30188C27.6294 1.21226 27.4944 1.16501 27.3562 1.16932H1.72532C1.57489 1.17249 1.43149 1.23382 1.32509 1.34045C1.2187 1.44708 1.1575 1.5908 1.15434 1.74156V13.4222C1.15379 13.5658 1.2071 13.7043 1.30365 13.8103C1.40021 13.9162 1.53296 13.982 1.67562 13.9944L5.75925 14.4174C5.91208 14.4361 6.05134 14.5146 6.14667 14.6358C6.242 14.757 6.28562 14.911 6.26811 15.0643C6.26039 15.1396 6.23783 15.2126 6.20174 15.2791C6.16566 15.3457 6.11676 15.4043 6.05788 15.4517C5.999 15.4992 5.93137 15.5345 5.85879 15.5555C5.78622 15.5765 5.71013 15.5829 5.63508 15.5743L1.55153 15.1514C1.12471 15.1081 0.729307 14.9069 0.442445 14.5872C0.155583 14.2675 -0.00215866 13.8522 2.23175e-05 13.4222V1.74156C1.06152e-05 1.28183 0.181365 0.840711 0.504566 0.514466C0.827767 0.188221 1.26661 0.00328383 1.72532 0H27.3562C27.7692 0.000770614 28.1685 0.148946 28.4824 0.417928C28.7962 0.68691 29.0042 1.05914 29.0691 1.46789L30 7.26471C30 7.35178 30 7.4513 30 7.53838V13.4969C29.9978 13.8956 29.8602 14.2817 29.6098 14.5914C29.3593 14.9012 29.011 15.1163 28.6223 15.2011L26.9094 15.5618H26.7977L26.8225 15.5743Z" fill="black"/>
<path d="M20.7778 15.3505C20.6274 15.3473 20.484 15.286 20.3776 15.1793C20.2712 15.0727 20.2101 14.929 20.2069 14.7782V4.62757H14.4353V14.7782C14.4353 14.9333 14.3739 15.082 14.2645 15.1916C14.1551 15.3013 14.0067 15.3629 13.852 15.3629C13.6972 15.3629 13.5488 15.3013 13.4394 15.1916C13.33 15.082 13.2686 14.9333 13.2686 14.7782V4.05536C13.2686 3.9003 13.33 3.7516 13.4394 3.64195C13.5488 3.53231 13.6972 3.4707 13.852 3.4707H20.7778C20.9326 3.4707 21.0809 3.53231 21.1903 3.64195C21.2998 3.7516 21.3613 3.9003 21.3613 4.05536V14.7782C21.358 14.9311 21.2951 15.0766 21.186 15.1836C21.077 15.2906 20.9304 15.3505 20.7778 15.3505Z" fill="black"/>
<path d="M17.3397 15.4996C17.1892 15.4964 17.0458 15.4351 16.9394 15.3285C16.833 15.2218 16.7718 15.0781 16.7687 14.9273V4.16718C16.7687 4.09203 16.7835 4.01764 16.8122 3.94821C16.8409 3.87879 16.8829 3.81571 16.9359 3.76257C16.9889 3.70944 17.0518 3.66727 17.1211 3.63851C17.1904 3.60976 17.2647 3.59497 17.3397 3.59497C17.4146 3.59497 17.4889 3.60976 17.5581 3.63851C17.6274 3.66727 17.6904 3.70944 17.7434 3.76257C17.7964 3.81571 17.8385 3.87879 17.8672 3.94821C17.8959 4.01764 17.9106 4.09203 17.9106 4.16718V14.9273C17.9074 15.0781 17.8462 15.2218 17.7398 15.3285C17.6334 15.4351 17.4901 15.4964 17.3397 15.4996Z" fill="black"/>
<path d="M10.3889 8.08569H0.868817C0.785926 8.0979 0.701383 8.09211 0.620939 8.06864C0.540495 8.04518 0.466012 8.00463 0.402606 7.94975C0.339201 7.89486 0.288381 7.82691 0.253516 7.75056C0.218651 7.67421 0.200562 7.59122 0.200562 7.50726C0.200562 7.42329 0.218651 7.34031 0.253516 7.26396C0.288381 7.1876 0.339201 7.11969 0.402606 7.0648C0.466012 7.00992 0.540495 6.96937 0.620939 6.94591C0.701383 6.92244 0.785926 6.91661 0.868817 6.92882H10.3889C10.4718 6.91661 10.5563 6.92244 10.6367 6.94591C10.7172 6.96937 10.7917 7.00992 10.8551 7.0648C10.9185 7.11969 10.9693 7.1876 11.0042 7.26396C11.039 7.34031 11.0571 7.42329 11.0571 7.50726C11.0571 7.59122 11.039 7.67421 11.0042 7.75056C10.9693 7.82691 10.9185 7.89486 10.8551 7.94975C10.7917 8.00463 10.7172 8.04518 10.6367 8.06864C10.5563 8.09211 10.4718 8.0979 10.3889 8.08569Z" fill="black"/>
<path d="M13.852 4.70221C13.6972 4.70221 13.5488 4.6406 13.4394 4.53096C13.33 4.42131 13.2686 4.27261 13.2686 4.11755V0.659366C13.2686 0.504305 13.33 0.355562 13.4394 0.245917C13.5488 0.136273 13.6972 0.074707 13.852 0.074707C14.0067 0.074707 14.1551 0.136273 14.2645 0.245917C14.3739 0.355562 14.4353 0.504305 14.4353 0.659366V4.11755C14.4353 4.27261 14.3739 4.42131 14.2645 4.53096C14.1551 4.6406 14.0067 4.70221 13.852 4.70221Z" fill="black"/>
<path d="M20.7778 4.60257C20.6253 4.59932 20.4801 4.53629 20.3733 4.427C20.2666 4.3177 20.2069 4.17084 20.2069 4.01792V0.709001C20.1947 0.625927 20.2005 0.541197 20.2239 0.460575C20.2473 0.379953 20.2877 0.305344 20.3425 0.241798C20.3973 0.178252 20.4651 0.127282 20.5413 0.0923401C20.6175 0.0573979 20.7002 0.0393066 20.784 0.0393066C20.8678 0.0393066 20.9506 0.0573979 21.0268 0.0923401C21.103 0.127282 21.1708 0.178252 21.2255 0.241798C21.2803 0.305344 21.3208 0.379953 21.3442 0.460575C21.3676 0.541197 21.3734 0.625927 21.3612 0.709001V4.01792C21.3612 4.17298 21.2997 4.32168 21.1903 4.43133C21.0809 4.54097 20.9325 4.60257 20.7778 4.60257Z" fill="black"/>
<path d="M29.1188 8.08558H24.154C24.0154 8.06516 23.8888 7.99551 23.7973 7.88931C23.7058 7.78311 23.6554 7.64747 23.6554 7.50714C23.6554 7.36682 23.7058 7.23117 23.7973 7.12498C23.8888 7.01878 24.0154 6.94912 24.154 6.92871H29.1188C29.2573 6.94912 29.3839 7.01878 29.4754 7.12498C29.5669 7.23117 29.6173 7.36682 29.6173 7.50714C29.6173 7.64747 29.5669 7.78311 29.4754 7.88931C29.3839 7.99551 29.2573 8.06516 29.1188 8.08558Z" fill="black"/>
<path d="M7.48453 7.74974C7.32981 7.74974 7.18143 7.68814 7.07203 7.57849C6.96263 7.46885 6.90112 7.32014 6.90112 7.16508V1.01996C6.90112 0.943183 6.9162 0.867183 6.94552 0.796249C6.97483 0.725315 7.01786 0.660841 7.07203 0.606551C7.1262 0.552261 7.1905 0.509214 7.26127 0.479833C7.33205 0.450451 7.40792 0.435303 7.48453 0.435303C7.56056 0.435285 7.6358 0.450491 7.70589 0.480022C7.77599 0.509554 7.83953 0.552812 7.89271 0.607272C7.94589 0.661732 7.98764 0.726293 8.01559 0.79716C8.04354 0.868027 8.05709 0.943776 8.05544 1.01996V7.16508C8.05709 7.24127 8.04354 7.31702 8.01559 7.38788C7.98764 7.45875 7.94589 7.52331 7.89271 7.57777C7.83953 7.63223 7.77599 7.67549 7.70589 7.70502C7.6358 7.73455 7.56056 7.74976 7.48453 7.74974Z" fill="black"/>
</svg>
